<svg xmlns="http://www.w3.org/2000/svg" xmlns:svg="http://www.w3.org/2000/svg" width="300" height="300" x="0" y="0" version="1.1" viewBox="0 0 100 100"><g><path style="text-indent:0;text-transform:none;direction:ltr;block-progression:tb;baseline-shift:baseline;enable-background:accumulate" fill-opacity="1" stroke="none" marker="none" d="m 49.625002,958.37952 a 3.0003,3.0003 0 0 0 -0.7188,0.1875 l -37,14.71875 a 3.0003,3.0003 0 0 0 -1.9062,2.8125 l 0,52.56253 a 3.0003,3.0003 0 0 0 1.9062,2.7812 l 37,14.7188 a 3.0003,3.0003 0 0 0 2.1876,0 l 36.999997,-14.7188 a 3.0003,3.0003 0 0 0 1.9062,-2.7812 l 0,-52.56253 a 3.0003,3.0003 0 0 0 -1.9062,-2.8125 L 51.093802,958.56702 a 3.0003,3.0003 0 0 0 -1.4688,-0.1875 z m 0.375,6.21875 28.875,11.5 -28.875,11.46873 -28.875,-11.46873 28.875,-11.5 z m -34,15.90623 31,12.3438 0,46.0937 -31,-12.3437 0,-46.0938 z m 68,0 0,46.0938 -31,12.3437 0,-46.0937 31,-12.3438 z" display="inline" overflow="visible" transform="translate(0,-952.36218)" visibility="visible"/></g></svg>